<mxfile host="app.diagrams.net" modified="2022-04-11T18:21:48.707Z" agent="5.0 (Windows)" etag="fT_UPmCB51bmIPTZNAzV" version="17.4.2" type="github">
  <diagram id="6AN_cO40GWESGTeyeJxN" name="Page-1">
    <mxGraphModel dx="1564" dy="840" grid="1" gridSize="10" guides="1" tooltips="1" connect="1" arrows="1" fold="1" page="1" pageScale="1" pageWidth="2339" pageHeight="3300" math="0" shadow="0">
      <root>
        <mxCell id="0" />
        <mxCell id="1" parent="0" />
        <mxCell id="7ud-lGu6QX58xXRVe8F9-2" value="Abstract Employee" style="swimlane;fontStyle=1;align=center;verticalAlign=top;childLayout=stackLayout;horizontal=1;startSize=26;horizontalStack=0;resizeParent=1;resizeParentMax=0;resizeLast=0;collapsible=1;marginBottom=0;" parent="1" vertex="1">
          <mxGeometry x="900" y="110" width="160" height="100" as="geometry" />
        </mxCell>
        <mxCell id="7ud-lGu6QX58xXRVe8F9-4" value="" style="line;strokeWidth=1;fillColor=none;align=left;verticalAlign=middle;spacingTop=-1;spacingLeft=3;spacingRight=3;rotatable=0;labelPosition=right;points=[];portConstraint=eastwest;" parent="7ud-lGu6QX58xXRVe8F9-2" vertex="1">
          <mxGeometry y="26" width="160" height="74" as="geometry" />
        </mxCell>
        <mxCell id="7ud-lGu6QX58xXRVe8F9-6" value="Principal" style="swimlane;fontStyle=1;align=center;verticalAlign=top;childLayout=stackLayout;horizontal=1;startSize=26;horizontalStack=0;resizeParent=1;resizeParentMax=0;resizeLast=0;collapsible=1;marginBottom=0;" parent="1" vertex="1">
          <mxGeometry x="710" y="350" width="160" height="34" as="geometry" />
        </mxCell>
        <mxCell id="7ud-lGu6QX58xXRVe8F9-8" value="" style="line;strokeWidth=1;fillColor=none;align=left;verticalAlign=middle;spacingTop=-1;spacingLeft=3;spacingRight=3;rotatable=0;labelPosition=right;points=[];portConstraint=eastwest;" parent="7ud-lGu6QX58xXRVe8F9-6" vertex="1">
          <mxGeometry y="26" width="160" height="8" as="geometry" />
        </mxCell>
        <mxCell id="7ud-lGu6QX58xXRVe8F9-10" value="Janitor" style="swimlane;fontStyle=1;align=center;verticalAlign=top;childLayout=stackLayout;horizontal=1;startSize=26;horizontalStack=0;resizeParent=1;resizeParentMax=0;resizeLast=0;collapsible=1;marginBottom=0;" parent="1" vertex="1">
          <mxGeometry x="900" y="350" width="160" height="34" as="geometry" />
        </mxCell>
        <mxCell id="7ud-lGu6QX58xXRVe8F9-12" value="" style="line;strokeWidth=1;fillColor=none;align=left;verticalAlign=middle;spacingTop=-1;spacingLeft=3;spacingRight=3;rotatable=0;labelPosition=right;points=[];portConstraint=eastwest;" parent="7ud-lGu6QX58xXRVe8F9-10" vertex="1">
          <mxGeometry y="26" width="160" height="8" as="geometry" />
        </mxCell>
        <mxCell id="7ud-lGu6QX58xXRVe8F9-14" value="Teacher" style="swimlane;fontStyle=1;align=center;verticalAlign=top;childLayout=stackLayout;horizontal=1;startSize=26;horizontalStack=0;resizeParent=1;resizeParentMax=0;resizeLast=0;collapsible=1;marginBottom=0;" parent="1" vertex="1">
          <mxGeometry x="1100" y="350" width="160" height="68" as="geometry" />
        </mxCell>
        <mxCell id="7ud-lGu6QX58xXRVe8F9-15" value="+ subjects: list&lt;Subject&gt;" style="text;strokeColor=none;fillColor=none;align=left;verticalAlign=top;spacingLeft=4;spacingRight=4;overflow=hidden;rotatable=0;points=[[0,0.5],[1,0.5]];portConstraint=eastwest;" parent="7ud-lGu6QX58xXRVe8F9-14" vertex="1">
          <mxGeometry y="26" width="160" height="34" as="geometry" />
        </mxCell>
        <mxCell id="7ud-lGu6QX58xXRVe8F9-16" value="" style="line;strokeWidth=1;fillColor=none;align=left;verticalAlign=middle;spacingTop=-1;spacingLeft=3;spacingRight=3;rotatable=0;labelPosition=right;points=[];portConstraint=eastwest;" parent="7ud-lGu6QX58xXRVe8F9-14" vertex="1">
          <mxGeometry y="60" width="160" height="8" as="geometry" />
        </mxCell>
        <mxCell id="7ud-lGu6QX58xXRVe8F9-18" value="Student" style="swimlane;fontStyle=1;align=center;verticalAlign=top;childLayout=stackLayout;horizontal=1;startSize=26;horizontalStack=0;resizeParent=1;resizeParentMax=0;resizeLast=0;collapsible=1;marginBottom=0;" parent="1" vertex="1">
          <mxGeometry x="630" y="497" width="300" height="104" as="geometry" />
        </mxCell>
        <mxCell id="7ud-lGu6QX58xXRVe8F9-19" value="+ classes: list&lt;Class&gt;" style="text;strokeColor=none;fillColor=none;align=left;verticalAlign=top;spacingLeft=4;spacingRight=4;overflow=hidden;rotatable=0;points=[[0,0.5],[1,0.5]];portConstraint=eastwest;" parent="7ud-lGu6QX58xXRVe8F9-18" vertex="1">
          <mxGeometry y="26" width="300" height="44" as="geometry" />
        </mxCell>
        <mxCell id="7ud-lGu6QX58xXRVe8F9-20" value="" style="line;strokeWidth=1;fillColor=none;align=left;verticalAlign=middle;spacingTop=-1;spacingLeft=3;spacingRight=3;rotatable=0;labelPosition=right;points=[];portConstraint=eastwest;" parent="7ud-lGu6QX58xXRVe8F9-18" vertex="1">
          <mxGeometry y="70" width="300" height="8" as="geometry" />
        </mxCell>
        <mxCell id="7ud-lGu6QX58xXRVe8F9-21" value="+ allStudentsOrderByLastName: list&lt;Students&gt;" style="text;strokeColor=none;fillColor=none;align=left;verticalAlign=top;spacingLeft=4;spacingRight=4;overflow=hidden;rotatable=0;points=[[0,0.5],[1,0.5]];portConstraint=eastwest;" parent="7ud-lGu6QX58xXRVe8F9-18" vertex="1">
          <mxGeometry y="78" width="300" height="26" as="geometry" />
        </mxCell>
        <mxCell id="7ud-lGu6QX58xXRVe8F9-22" value="Subject" style="swimlane;fontStyle=1;align=center;verticalAlign=top;childLayout=stackLayout;horizontal=1;startSize=26;horizontalStack=0;resizeParent=1;resizeParentMax=0;resizeLast=0;collapsible=1;marginBottom=0;" parent="1" vertex="1">
          <mxGeometry x="1390" y="490" width="160" height="138" as="geometry" />
        </mxCell>
        <mxCell id="7ud-lGu6QX58xXRVe8F9-23" value="+ id: int&#xa;+ name: String&#xa;+ teacher: Teacher" style="text;strokeColor=none;fillColor=none;align=left;verticalAlign=top;spacingLeft=4;spacingRight=4;overflow=hidden;rotatable=0;points=[[0,0.5],[1,0.5]];portConstraint=eastwest;" parent="7ud-lGu6QX58xXRVe8F9-22" vertex="1">
          <mxGeometry y="26" width="160" height="104" as="geometry" />
        </mxCell>
        <mxCell id="7ud-lGu6QX58xXRVe8F9-24" value="" style="line;strokeWidth=1;fillColor=none;align=left;verticalAlign=middle;spacingTop=-1;spacingLeft=3;spacingRight=3;rotatable=0;labelPosition=right;points=[];portConstraint=eastwest;" parent="7ud-lGu6QX58xXRVe8F9-22" vertex="1">
          <mxGeometry y="130" width="160" height="8" as="geometry" />
        </mxCell>
        <mxCell id="7ud-lGu6QX58xXRVe8F9-26" value="Class" style="swimlane;fontStyle=1;align=center;verticalAlign=top;childLayout=stackLayout;horizontal=1;startSize=26;horizontalStack=0;resizeParent=1;resizeParentMax=0;resizeLast=0;collapsible=1;marginBottom=0;" parent="1" vertex="1">
          <mxGeometry x="1010" y="497" width="300" height="154" as="geometry" />
        </mxCell>
        <mxCell id="7ud-lGu6QX58xXRVe8F9-27" value="+ id: int&#xa;+ name: String&#xa;+ subjects: list&lt;Subject&gt;&#xa;+ students: list&lt;Student&gt;&#xa;" style="text;strokeColor=none;fillColor=none;align=left;verticalAlign=top;spacingLeft=4;spacingRight=4;overflow=hidden;rotatable=0;points=[[0,0.5],[1,0.5]];portConstraint=eastwest;" parent="7ud-lGu6QX58xXRVe8F9-26" vertex="1">
          <mxGeometry y="26" width="300" height="94" as="geometry" />
        </mxCell>
        <mxCell id="7ud-lGu6QX58xXRVe8F9-28" value="" style="line;strokeWidth=1;fillColor=none;align=left;verticalAlign=middle;spacingTop=-1;spacingLeft=3;spacingRight=3;rotatable=0;labelPosition=right;points=[];portConstraint=eastwest;" parent="7ud-lGu6QX58xXRVe8F9-26" vertex="1">
          <mxGeometry y="120" width="300" height="8" as="geometry" />
        </mxCell>
        <mxCell id="7ud-lGu6QX58xXRVe8F9-29" value="+ allStudentsBySubject(Subject): list&lt;Students&gt;" style="text;strokeColor=none;fillColor=none;align=left;verticalAlign=top;spacingLeft=4;spacingRight=4;overflow=hidden;rotatable=0;points=[[0,0.5],[1,0.5]];portConstraint=eastwest;" parent="7ud-lGu6QX58xXRVe8F9-26" vertex="1">
          <mxGeometry y="128" width="300" height="26" as="geometry" />
        </mxCell>
        <mxCell id="7ud-lGu6QX58xXRVe8F9-30" value="Extends" style="endArrow=block;endSize=16;endFill=0;html=1;rounded=0;entryX=0;entryY=0.5;entryDx=0;entryDy=0;exitX=0.5;exitY=0;exitDx=0;exitDy=0;" parent="1" source="7ud-lGu6QX58xXRVe8F9-6" edge="1">
          <mxGeometry width="160" relative="1" as="geometry">
            <mxPoint x="750" y="210" as="sourcePoint" />
            <mxPoint x="900" y="173.0000000000001" as="targetPoint" />
            <Array as="points">
              <mxPoint x="790" y="173" />
            </Array>
          </mxGeometry>
        </mxCell>
        <mxCell id="7ud-lGu6QX58xXRVe8F9-31" value="Extends" style="endArrow=block;endSize=16;endFill=0;html=1;rounded=0;entryX=1;entryY=0.5;entryDx=0;entryDy=0;exitX=0.5;exitY=0;exitDx=0;exitDy=0;" parent="1" source="7ud-lGu6QX58xXRVe8F9-14" edge="1">
          <mxGeometry width="160" relative="1" as="geometry">
            <mxPoint x="810" y="280" as="sourcePoint" />
            <mxPoint x="1060" y="173.0000000000001" as="targetPoint" />
            <Array as="points">
              <mxPoint x="1180" y="173" />
            </Array>
          </mxGeometry>
        </mxCell>
        <mxCell id="7ud-lGu6QX58xXRVe8F9-33" value="Extends" style="endArrow=block;endSize=16;endFill=0;html=1;rounded=0;entryX=0.5;entryY=1;entryDx=0;entryDy=0;exitX=0.5;exitY=0;exitDx=0;exitDy=0;" parent="1" source="7ud-lGu6QX58xXRVe8F9-10" target="7ud-lGu6QX58xXRVe8F9-2" edge="1">
          <mxGeometry width="160" relative="1" as="geometry">
            <mxPoint x="1190" y="320" as="sourcePoint" />
            <mxPoint x="977.6000000000001" y="246.00199999999995" as="targetPoint" />
            <Array as="points" />
          </mxGeometry>
        </mxCell>
        <mxCell id="7ud-lGu6QX58xXRVe8F9-38" value="" style="endArrow=open;endFill=1;endSize=12;html=1;rounded=0;entryX=0.434;entryY=-0.014;entryDx=0;entryDy=0;entryPerimeter=0;" parent="1" target="7ud-lGu6QX58xXRVe8F9-22" edge="1">
          <mxGeometry width="160" relative="1" as="geometry">
            <mxPoint x="1260" y="400" as="sourcePoint" />
            <mxPoint x="1420" y="400" as="targetPoint" />
            <Array as="points">
              <mxPoint x="1460" y="400" />
            </Array>
          </mxGeometry>
        </mxCell>
        <mxCell id="7ud-lGu6QX58xXRVe8F9-39" value="" style="endArrow=open;endFill=1;endSize=12;html=1;rounded=0;entryX=-0.012;entryY=0.175;entryDx=0;entryDy=0;entryPerimeter=0;exitX=1.007;exitY=0.125;exitDx=0;exitDy=0;exitPerimeter=0;" parent="1" source="7ud-lGu6QX58xXRVe8F9-27" target="7ud-lGu6QX58xXRVe8F9-23" edge="1">
          <mxGeometry width="160" relative="1" as="geometry">
            <mxPoint x="1270" y="410" as="sourcePoint" />
            <mxPoint x="1379.4399999999998" y="527.7040000000001" as="targetPoint" />
            <Array as="points" />
          </mxGeometry>
        </mxCell>
        <mxCell id="7ud-lGu6QX58xXRVe8F9-40" value="" style="endArrow=open;endFill=1;endSize=12;html=1;rounded=0;entryX=1.007;entryY=0.24;entryDx=0;entryDy=0;exitX=0.004;exitY=0.169;exitDx=0;exitDy=0;exitPerimeter=0;entryPerimeter=0;" parent="1" source="7ud-lGu6QX58xXRVe8F9-27" target="7ud-lGu6QX58xXRVe8F9-19" edge="1">
          <mxGeometry width="160" relative="1" as="geometry">
            <mxPoint x="1191.1200000000001" y="567.75" as="sourcePoint" />
            <mxPoint x="1307.6000000000001" y="566.6080000000001" as="targetPoint" />
            <Array as="points" />
          </mxGeometry>
        </mxCell>
        <mxCell id="7ud-lGu6QX58xXRVe8F9-42" value="&lt;p style=&quot;margin: 0px ; margin-top: 4px ; text-align: center&quot;&gt;&lt;i&gt;&amp;lt;&amp;lt;Interface&amp;gt;&amp;gt;&lt;/i&gt;&lt;b&gt;&lt;br&gt;&lt;/b&gt;&lt;/p&gt;&lt;p style=&quot;margin: 0px ; margin-top: 4px ; text-align: center&quot;&gt;&lt;b&gt;Person&lt;/b&gt;&lt;br&gt;&lt;/p&gt;&lt;hr size=&quot;1&quot;&gt;&lt;p style=&quot;margin: 0px ; margin-left: 4px&quot;&gt;+ id: int&lt;br&gt;+ name: String&lt;br&gt;+ lastname: String&lt;/p&gt;&lt;hr size=&quot;1&quot;&gt;&lt;p style=&quot;margin: 0px ; margin-left: 4px&quot;&gt;+ getLastName() : String &lt;br&gt;+ setLastName(String lastName):void&lt;br&gt;&lt;/p&gt;" style="verticalAlign=top;align=left;overflow=fill;fontSize=12;fontFamily=Helvetica;html=1;" parent="1" vertex="1">
          <mxGeometry x="440" y="100" width="230" height="180" as="geometry" />
        </mxCell>
        <mxCell id="7ud-lGu6QX58xXRVe8F9-43" value="" style="endArrow=block;dashed=1;endFill=0;endSize=12;html=1;rounded=0;entryX=1;entryY=0.25;entryDx=0;entryDy=0;exitX=0.001;exitY=-0.081;exitDx=0;exitDy=0;exitPerimeter=0;" parent="1" target="7ud-lGu6QX58xXRVe8F9-42" edge="1">
          <mxGeometry width="160" relative="1" as="geometry">
            <mxPoint x="900.1600000000001" y="130.00599999999997" as="sourcePoint" />
            <mxPoint x="1150" y="380" as="targetPoint" />
          </mxGeometry>
        </mxCell>
        <mxCell id="7ud-lGu6QX58xXRVe8F9-46" value="implement" style="edgeLabel;html=1;align=center;verticalAlign=middle;resizable=0;points=[];" parent="7ud-lGu6QX58xXRVe8F9-43" vertex="1" connectable="0">
          <mxGeometry x="-0.1448" y="5" relative="1" as="geometry">
            <mxPoint x="-12" y="-5" as="offset" />
          </mxGeometry>
        </mxCell>
        <mxCell id="7ud-lGu6QX58xXRVe8F9-45" value="implement" style="endArrow=block;dashed=1;endFill=0;endSize=12;html=1;rounded=0;entryX=0.5;entryY=1;entryDx=0;entryDy=0;exitX=0.01;exitY=0.015;exitDx=0;exitDy=0;exitPerimeter=0;" parent="1" source="7ud-lGu6QX58xXRVe8F9-19" target="7ud-lGu6QX58xXRVe8F9-42" edge="1">
          <mxGeometry width="160" relative="1" as="geometry">
            <mxPoint x="910.1600000000001" y="140.00599999999997" as="sourcePoint" />
            <mxPoint x="680" y="141" as="targetPoint" />
            <Array as="points">
              <mxPoint x="555" y="524" />
            </Array>
          </mxGeometry>
        </mxCell>
        <mxCell id="7ud-lGu6QX58xXRVe8F9-47" value="&lt;div&gt;&lt;br&gt;&lt;/div&gt;&lt;div&gt;&lt;br&gt;&lt;/div&gt;&lt;div&gt;El siguiente esquema de diagrama uml considera los siguientes casos, cada empleado de la escuela (director,profesor,etc) extiende de la clase abstracta empleado. La clase abstacta empleado implementa la interfaz persona, para compartir metodos y variables en comun con los estudiantes, ya que estos no son empleados y estaria mal que los agrupe ahi.&lt;/div&gt;&lt;div&gt;&lt;br&gt;&lt;/div&gt;&lt;div&gt;Despues cada maestro puede tener muchas materias, y cada materia es dada por un profesor (esto podria ser una relacion muchos a muchos), pero como dsp utilizo ese mismo concepto, preferi dejarlo como que cada materia es dada por un profesor.&lt;/div&gt;&lt;div&gt;&lt;br&gt;&lt;/div&gt;&lt;div&gt;Por ultimo en cada clase hay muchos alumnos y se pueden dar muchas materias.&lt;br&gt;&lt;/div&gt;" style="text;html=1;strokeColor=#d79b00;fillColor=#ffe6cc;spacing=5;spacingTop=-20;whiteSpace=wrap;overflow=hidden;rounded=0;" parent="1" vertex="1">
          <mxGeometry x="1230" y="70" width="350" height="230" as="geometry" />
        </mxCell>
        <mxCell id="7ud-lGu6QX58xXRVe8F9-48" value="Punto A" style="text;html=1;strokeColor=#2D7600;fillColor=#60a917;align=center;verticalAlign=middle;whiteSpace=wrap;rounded=0;fontColor=#ffffff;" parent="1" vertex="1">
          <mxGeometry x="450" y="60" width="60" height="30" as="geometry" />
        </mxCell>
        <mxCell id="7ud-lGu6QX58xXRVe8F9-49" value="Punto B" style="text;html=1;strokeColor=#2D7600;fillColor=#60a917;align=center;verticalAlign=middle;whiteSpace=wrap;rounded=0;fontColor=#ffffff;" parent="1" vertex="1">
          <mxGeometry x="630" y="621" width="60" height="30" as="geometry" />
        </mxCell>
        <mxCell id="7ud-lGu6QX58xXRVe8F9-50" value="Punto C" style="text;html=1;strokeColor=#2D7600;fillColor=#60a917;align=center;verticalAlign=middle;whiteSpace=wrap;rounded=0;fontColor=#ffffff;" parent="1" vertex="1">
          <mxGeometry x="1010" y="670" width="60" height="30" as="geometry" />
        </mxCell>
      </root>
    </mxGraphModel>
  </diagram>
</mxfile>
